HIERARCHY
ROOT Hips
{
	OFFSET 0.000000 0.000000 0.000000
	CHANNELS 6 Xposition Yposition Zposition Zrotation Yrotation Xrotation 
	JOINT LowerBack
	{
		OFFSET 0.000000 0.000000 0.000000
		CHANNELS 3 Zrotation Yrotation Xrotation
		JOINT Spine
		{
			OFFSET 0.028270 2.035590 -0.193380
			CHANNELS 3 Zrotation Yrotation Xrotation
			JOINT Spine1
			{
				OFFSET 0.056720 2.048850 -0.042750
				CHANNELS 3 Zrotation Yrotation Xrotation
				JOINT Neck
				{
					OFFSET 0.000000 0.000000 0.000000
					CHANNELS 3 Zrotation Yrotation Xrotation
					JOINT Neck1
					{
						OFFSET -0.054170 1.746240 0.172020
						CHANNELS 3 Zrotation Yrotation Xrotation
						JOINT Head
						{
							OFFSET 0.104070 1.761360 -0.123970
							CHANNELS 3 Zrotation Yrotation Xrotation
							End Site
							{
								OFFSET 0.000000 0.000000 0.000000
							}
						}
					}
				}
				JOINT LeftShoulder
				{
					OFFSET 0.000000 0.000000 0.000000
					CHANNELS 3 Zrotation Yrotation Xrotation
					JOINT LeftArm
					{
						OFFSET 3.362410 1.200890 -0.311210
						CHANNELS 3 Zrotation Yrotation Xrotation
						JOINT LeftForeArm
						{
							OFFSET 4.983000 -0.000000 -0.000000
							CHANNELS 3 Zrotation Yrotation Xrotation
							JOINT LeftHand
							{
								OFFSET 3.483560 -0.000000 -0.000000
								CHANNELS 3 Zrotation Yrotation Xrotation
								JOINT LeftFingerBase
								{
									OFFSET 0.000000 0.000000 0.000000
									CHANNELS 3 Zrotation Yrotation Xrotation
									JOINT LeftHandIndex1
									{
										OFFSET 0.715260 -0.000000 -0.000000
										CHANNELS 3 Zrotation Yrotation Xrotation
										End Site
										{
											OFFSET 0.000000 0.000000 0.000000
										}
									}
								}
								JOINT LThumb
								{
									OFFSET 0.000000 0.000000 0.000000
									CHANNELS 3 Zrotation Yrotation Xrotation
									End Site
									{
										OFFSET 0.000000 0.000000 0.000000
									}
								}
							}
						}
					}
				}
				JOINT RightShoulder
				{
					OFFSET 0.000000 0.000000 0.000000
					CHANNELS 3 Zrotation Yrotation Xrotation
					JOINT RightArm
					{
						OFFSET -3.136600 1.374050 -0.404650
						CHANNELS 3 Zrotation Yrotation Xrotation
						JOINT RightForeArm
						{
							OFFSET -5.241900 -0.000000 -0.000000
							CHANNELS 3 Zrotation Yrotation Xrotation
							JOINT RightHand
							{
								OFFSET -3.444170 -0.000000 -0.000000
								CHANNELS 3 Zrotation Yrotation Xrotation
								JOINT RightFingerBase
								{
									OFFSET 0.000000 0.000000 0.000000
									CHANNELS 3 Zrotation Yrotation Xrotation
									JOINT RightHandIndex1
									{
										OFFSET -0.622530 -0.000000 -0.000000
										CHANNELS 3 Zrotation Yrotation Xrotation
										End Site
										{
											OFFSET 0.000000 0.000000 0.000000
										}
									}
								}
								JOINT RThumb
								{
									OFFSET 0.000000 0.000000 0.000000
									CHANNELS 3 Zrotation Yrotation Xrotation
									End Site
									{
										OFFSET 0.000000 0.000000 0.000000
									}
								}
							}
						}
					}
				}
			}
		}
	}
}
}
MOTION
Frames: 12
Frame Time: 0.008333
3.547005 17.209131 0.908013 -177.392264 -78.892653 -172.670412 1.613907 -1.441540 -3.679643 -0.135608 -1.632994 -3.857399 -6.120382 -1.460700 -2.623064 7.341552 -6.784037 1.086838 -3.947267 -0.384673 2.395876 0.000000 0.000000 0.000000 9.734855 1.616186 -2.647125 -85.991265 -16.799868 16.355826 -179.262666 -54.164913 179.921279 5.407423 -5.649446 -0.316695 -0.088562 1.070795 -0.000000 0.000000 0.000000 0.000000 0.000000 0.000000 0.000000 0.526862 -4.659376 -3.340521 88.941883 21.475222 32.183214 -178.580263 60.372916 179.828273 -11.757051 15.230692 -1.719373 0.164274 -1.130862 -0.000000 0.000000 0.000000 0.000000 0.000000 0.000000 0.000000 
3.544006 17.209548 0.909456 -177.289089 -78.683146 -172.770885 1.695786 -1.455168 -3.757934 -0.140921 -1.657761 -3.862660 -6.221650 -1.481593 -2.595390 7.375074 -6.874441 1.118142 -3.939837 -0.384343 2.405401 0.000000 0.000000 0.000000 9.610130 1.565625 -2.701884 -85.307271 -17.726657 15.713922 -179.165946 -54.876353 179.923897 5.301045 -5.394599 -0.297890 -0.089261 1.057715 -0.000000 0.000000 0.000000 0.000000 0.000000 0.000000 0.000000 0.654768 -4.799109 -3.326551 89.017204 21.601078 32.416970 -178.580353 60.459144 179.828591 -11.722753 15.221846 -1.713042 0.162333 -1.129027 -0.000000 0.000000 0.000000 0.000000 0.000000 0.000000 0.000000 
3.541710 17.209952 0.910985 -177.196391 -78.498420 -172.871703 1.786472 -1.469881 -3.845088 -0.150793 -1.685186 -3.867098 -6.353530 -1.503863 -2.560378 7.426504 -6.980458 1.163235 -3.928050 -0.383838 2.418765 0.000000 0.000000 0.000000 9.445747 1.502654 -2.764367 -84.436597 -18.968453 15.003531 -179.054152 -55.789347 179.926631 5.192189 -5.125992 -0.278793 -0.091341 1.044200 -0.000000 0.000000 0.000000 0.000000 0.000000 0.000000 0.000000 0.810980 -4.965178 -3.309607 89.097507 21.733249 32.653244 -178.574990 60.554097 179.828822 -11.683876 15.209937 -1.705629 0.159563 -1.126726 -0.000000 0.000000 0.000000 0.000000 0.000000 0.000000 0.000000 
3.540320 17.210325 0.912553 -177.113987 -78.347338 -172.973631 1.883749 -1.487664 -3.938880 -0.165876 -1.717084 -3.870562 -6.518384 -1.529419 -2.519133 7.500783 -7.099877 1.222722 -3.910366 -0.383078 2.436205 0.000000 0.000000 0.000000 9.238787 1.419323 -2.828023 -83.359561 -20.543875 14.227992 -178.940764 -56.932520 179.929149 5.099612 -4.847429 -0.260804 -0.094921 1.030149 -0.000000 0.000000 0.000000 0.000000 0.000000 0.000000 0.000000 0.995475 -5.151390 -3.290220 89.181053 21.864604 32.883276 -178.563292 60.651878 179.828924 -11.642949 15.196188 -1.697532 0.156027 -1.124041 -0.000000 0.000000 0.000000 0.000000 0.000000 0.000000 0.000000 
3.540017 17.210632 0.914189 -177.036822 -78.236534 -173.082149 1.984058 -1.511922 -4.036776 -0.186062 -1.756454 -3.874055 -6.712823 -1.561810 -2.477857 7.600834 -7.234756 1.298803 -3.886406 -0.382097 2.458515 0.000000 0.000000 0.000000 8.999654 1.280701 -2.885428 -82.065387 -22.425522 13.363596 -178.848955 -58.313352 179.931075 5.040105 -4.570914 -0.244927 -0.099089 1.015654 -0.000000 0.000000 0.000000 0.000000 0.000000 0.000000 0.000000 1.209005 -5.355998 -3.266807 89.262218 21.995328 33.106143 -178.546810 60.752540 179.828861 -11.607165 15.182709 -1.690149 0.152125 -1.121078 -0.000000 0.000000 0.000000 0.000000 0.000000 0.000000 0.000000 
3.540808 17.210856 0.915788 -176.972417 -78.171422 -173.187756 2.083129 -1.545618 -4.135094 -0.212283 -1.805938 -3.875490 -6.939881 -1.603547 -2.430295 7.732471 -7.371124 1.383342 -3.853108 -0.380619 2.483375 0.000000 0.000000 0.000000 8.710434 1.123823 -2.923789 -80.532318 -24.653927 12.440222 -178.787326 -59.980304 179.932162 5.031072 -4.284484 -0.231362 -0.104038 1.000177 -0.000000 0.000000 0.000000 0.000000 0.000000 0.000000 0.000000 1.445483 -5.557236 -3.245336 89.343217 22.106284 33.302725 -178.522728 60.841019 179.828645 -11.571299 15.169625 -1.682780 0.147580 -1.117903 -0.000000 0.000000 0.000000 0.000000 0.000000 0.000000 0.000000 
3.542795 17.211015 0.917370 -176.912894 -78.154018 -173.296238 2.175997 -1.592970 -4.230534 -0.243659 -1.869099 -3.875587 -7.190522 -1.658970 -2.381996 7.896700 -7.511088 1.473869 -3.810623 -0.378670 2.510283 0.000000 0.000000 0.000000 8.386257 0.919931 -2.934519 -78.758895 -27.173217 11.421358 -178.779026 -61.936917 179.932153 5.080744 -3.997486 -0.220217 -0.107931 0.983868 -0.000000 0.000000 0.000000 0.000000 0.000000 0.000000 0.000000 1.703592 -5.754238 -3.225432 89.416782 22.201374 33.476770 -178.494145 60.917214 179.828300 -11.541531 15.158380 -1.676421 0.142916 -1.114589 -0.000000 0.000000 0.000000 0.000000 0.000000 0.000000 0.000000 
3.545928 17.211078 0.918978 -176.855182 -78.183973 -173.406935 2.255419 -1.657430 -4.319350 -0.279406 -1.948446 -3.874911 -7.453860 -1.731395 -2.338323 8.093745 -7.651874 1.566307 -3.758940 -0.376249 2.538213 0.000000 0.000000 0.000000 8.045388 0.653286 -2.911802 -76.751772 -29.922250 10.269572 -178.838936 -64.189789 179.930932 5.191665 -3.715455 -0.211396 -0.108925 0.966984 -0.000000 0.000000 0.000000 0.000000 0.000000 0.000000 0.000000 1.978548 -5.943479 -3.207706 89.475980 22.279031 33.627991 -178.462851 60.978043 179.827865 -11.520556 15.149670 -1.671667 0.138441 -1.111152 -0.000000 0.000000 0.000000 0.000000 0.000000 0.000000 0.000000 
3.550105 17.211066 0.920626 -176.792916 -78.258661 -173.521032 2.315022 -1.741347 -4.397362 -0.318331 -2.045358 -3.873803 -7.717609 -1.823002 -2.303762 8.322658 -7.789521 1.654695 -3.698279 -0.373335 2.565555 0.000000 0.000000 0.000000 7.709179 0.322168 -2.854648 -74.529357 -32.836452 8.949758 -178.970733 -66.750795 179.928530 5.359861 -3.441667 -0.204402 -0.105402 0.949946 -0.000000 0.000000 0.000000 0.000000 0.000000 0.000000 0.000000 2.264508 -6.123320 -3.193621 89.514508 22.338060 33.757141 -178.430451 61.019428 179.827404 -11.508384 15.143836 -1.668515 0.134352 -1.107554 -0.000000 0.000000 0.000000 0.000000 0.000000 0.000000 0.000000 
3.555277 17.211013 0.922372 -176.721073 -78.372177 -173.640009 2.348968 -1.846053 -4.460174 -0.358890 -2.160148 -3.872800 -7.968355 -1.934953 -2.283519 8.580925 -7.921522 1.732586 -3.629331 -0.369927 2.590538 0.000000 0.000000 0.000000 7.404652 -0.068543 -2.768700 -72.123998 -35.842593 7.426284 -179.166030 -69.631820 179.925113 5.574803 -3.181058 -0.198732 -0.096103 0.933409 -0.000000 0.000000 0.000000 0.000000 0.000000 0.000000 0.000000 2.554809 -6.296397 -3.184349 89.526960 22.379637 33.868618 -178.398675 61.037149 179.826999 -11.503862 15.140159 -1.666765 0.130816 -1.103722 -0.000000 0.000000 0.000000 0.000000 0.000000 0.000000 0.000000 
3.561157 17.210944 0.924288 -176.633010 -78.516964 -173.763793 2.353117 -1.971646 -4.503870 -0.399141 -2.292006 -3.873288 -8.192468 -2.067415 -2.285283 8.863625 -8.044196 1.796085 -3.553470 -0.366080 2.612090 0.000000 0.000000 0.000000 7.165957 -0.514652 -2.666435 -69.584453 -38.856951 5.665862 -179.404165 -72.839291 179.920941 5.821073 -2.940340 -0.194080 -0.080354 0.918162 -0.000000 0.000000 0.000000 0.000000 0.000000 0.000000 0.000000 2.842815 -6.466048 -3.179608 89.507692 22.405067 33.967432 -178.369425 61.032078 179.826730 -11.505114 15.138543 -1.666113 0.127922 -1.099549 -0.000000 0.000000 0.000000 0.000000 0.000000 0.000000 0.000000 
3.567515 17.211029 0.926472 -176.525580 -78.682230 -173.891783 2.329643 -2.117620 -4.526560 -0.437336 -2.440451 -3.873862 -8.385520 -2.219964 -2.303118 9.166455 -8.156611 1.832359 -3.471713 -0.361691 2.626531 0.000000 0.000000 0.000000 6.984554 -0.955849 -2.556466 -66.936417 -41.880989 3.689738 -179.649381 -76.414697 179.916375 6.080233 -2.716494 -0.189635 -0.058909 0.904727 -0.000000 0.000000 0.000000 0.000000 0.000000 0.000000 0.000000 3.125484 -6.633843 -3.183421 89.459348 22.420660 34.063085 -178.345196 60.999694 179.826737 -11.505780 15.136142 -1.665261 0.125755 -1.094982 -0.000000 0.000000 0.000000 0.000000 0.000000 0.000000 0.000000 
